<?xml version="1.0" encoding="utf-8"?>
<!-- Generator: Adobe Illustrator 18.1.1, SVG Export Plug-In . SVG Version: 6.00 Build 0)  -->
<svg version="1.1" id="Layer_1" xmlns="http://www.w3.org/2000/svg" xmlns:xlink="http://www.w3.org/1999/xlink" x="0px" y="0px"
	 viewBox="0 0 841.9 1190.6" enable-background="new 0 0 841.9 1190.6" xml:space="preserve">
<g>
	<path fill-rule="evenodd" clip-rule="evenodd" stroke="#000000" stroke-width="0.216" stroke-miterlimit="22.9256" d="M609.9,482.2
		L424.3,375.1c-2.1-1.2-4.7-1.2-6.8,0L232,482.2c-2.1,1.2-3.4,3.5-3.4,5.9v214.3c0,2.4,1.3,4.7,3.4,5.9l185.6,107.1
		c1.1,0.6,2.2,0.9,3.4,0.9c1.2,0,2.4-0.3,3.4-0.9l185.6-107.1c2.1-1.2,3.4-3.5,3.4-5.9V488.1C613.3,485.7,612,483.5,609.9,482.2
		L609.9,482.2z M420.9,388.8L420.9,388.8l178.8,103.2c0,68.8,0,137.6,0,206.4L420.9,801.7L242.2,698.5c0-68.8,0-137.6,0-206.4
		L420.9,388.8z"/>
	<path fill-rule="evenodd" clip-rule="evenodd" d="M497.1,452l-75.9-43.8c0,0,0,0,0,0c-0.1-0.1-0.2-0.1-0.3-0.1c0,0,0,0,0,0
		c0,0,0,0,0,0c0,0-0.1,0-0.1,0c0,0-0.1,0-0.1,0c-0.1,0-0.2,0-0.3,0c0,0,0,0-0.1,0c0,0-0.1,0-0.1,0c-0.1,0-0.3,0-0.4,0c0,0,0,0,0,0
		c0,0,0,0,0,0c0,0,0,0,0,0c-0.1,0-0.2,0.1-0.3,0.1c0,0,0,0,0,0l-74.7,43.1c-0.9,0.5-1.2,1.6-0.7,2.5c0.5,0.9,1.7,1.2,2.5,0.7
		l66.4-38.3l-28.2,36c-0.6,0.8-0.5,2,0.3,2.6c0.8,0.6,2,0.5,2.6-0.3l30.8-39.3v38.4c0,1,0.8,1.9,1.9,1.9s1.9-0.8,1.9-1.9v-38.4
		l30.8,39.3c0.4,0.5,0.9,0.7,1.5,0.7c0.4,0,0.8-0.1,1.1-0.4c0.8-0.6,0.9-1.8,0.3-2.6l-28.2-36l67.6,39c0.3,0.2,0.6,0.2,0.9,0.2
		c0.6,0,1.3-0.3,1.6-0.9C498.3,453.7,498,452.5,497.1,452z"/>
	<path fill-rule="evenodd" clip-rule="evenodd" stroke="#000000" stroke-width="0.216" stroke-miterlimit="22.9256" d="M497.7,734.9
		c-0.5-0.9-1.7-1.2-2.5-0.7l-66.4,38.3l28.2-36c0.6-0.8,0.5-2-0.3-2.6c-0.8-0.6-2-0.5-2.6,0.3l-30.8,39.3v-38.4c0-1-0.8-1.9-1.9-1.9
		c-1,0-1.9,0.8-1.9,1.9v38.4l-30.8-39.3c-0.6-0.8-1.8-0.9-2.6-0.3c-0.8,0.6-0.9,1.8-0.3,2.6l28.2,36l-67.6-39
		c-0.9-0.5-2-0.2-2.5,0.7c-0.5,0.9-0.2,2,0.7,2.5l75.9,43.8c0,0,0,0,0.1,0c0.1,0,0.1,0.1,0.2,0.1c0,0,0,0,0.1,0c0,0,0,0,0.1,0
		c0,0,0.1,0,0.1,0c0.1,0,0.3,0.1,0.4,0.1l0,0h0h0l0,0c0.2,0,0.3,0,0.4-0.1c0,0,0.1,0,0.1,0c0,0,0.1,0,0.1,0c0.1,0,0.1-0.1,0.2-0.1
		c0,0,0,0,0.1,0l74.7-43.1C497.9,737,498.2,735.8,497.7,734.9z"/>
	
		<circle fill-rule="evenodd" clip-rule="evenodd" stroke="#000000" stroke-width="0.216" stroke-miterlimit="22.9256" cx="502.7" cy="731.4" r="2.3"/>
	
		<circle fill-rule="evenodd" clip-rule="evenodd" stroke="#000000" stroke-width="0.216" stroke-miterlimit="22.9256" cx="339.2" cy="731.4" r="2.3"/>
	<path fill-rule="evenodd" clip-rule="evenodd" stroke="#000000" stroke-width="0.216" stroke-miterlimit="22.9256" d="M373.1,723.4
		c-0.3-0.6-0.1-1.3,0.5-1.7l3.4-2c1.1-0.6,2.2-0.8,3-0.6c0.7,0.2,1.2,0.6,1.6,1.3l0,0c0.6,1.1,0.4,2-0.1,2.8c1.4-0.2,2.4,0,3.2,1.3
		l0,0c1,1.8,0.1,3.5-2.1,4.8l-3.5,2c-0.6,0.3-1.3,0.1-1.7-0.5L373.1,723.4L373.1,723.4z M378.8,723.9L378.8,723.9
		c0.9-0.5,1.4-1.2,0.9-1.9l0,0c-0.4-0.6-1.1-0.7-2-0.2l-2.1,1.2l1.2,2.1L378.8,723.9L378.8,723.9z M381.6,727.5L381.6,727.5
		c0.9-0.5,1.3-1.2,0.9-1.9l0,0c-0.4-0.7-1.1-0.8-2.2-0.1l-2.5,1.4l1.2,2.1L381.6,727.5z"/>
	<path fill-rule="evenodd" clip-rule="evenodd" stroke="#000000" stroke-width="0.216" stroke-miterlimit="22.9256" d="M416.3,718.6
		L416.3,718.6c0-3.2,2.4-5.8,5.8-5.8c1.7,0,2.8,0.4,3.7,1.1c0.3,0.2,0.5,0.5,0.5,1c0,0.7-0.5,1.2-1.2,1.2c-0.3,0-0.6-0.1-0.7-0.2
		c-0.7-0.5-1.4-0.8-2.3-0.8c-1.9,0-3.2,1.6-3.2,3.5v0c0,1.9,1.3,3.5,3.2,3.5c1,0,1.7-0.3,2.4-0.9c0.2-0.2,0.4-0.3,0.7-0.3
		c0.6,0,1.2,0.5,1.2,1.1c0,0.4-0.2,0.7-0.4,0.9c-1,0.9-2.2,1.4-4,1.4C418.8,724.4,416.3,721.8,416.3,718.6z"/>
	<path fill-rule="evenodd" clip-rule="evenodd" stroke="#000000" stroke-width="0.216" stroke-miterlimit="22.9256" d="M462,719
		c0.3-0.6,1.1-0.8,1.7-0.5l0.2,0.1c0.5,0.3,0.7,0.7,0.7,1.3l1,7.8l2.9-5c0.3-0.6,1.1-0.8,1.7-0.4c0.6,0.3,0.8,1.1,0.4,1.7l-4.5,7.7
		c-0.3,0.6-1.1,0.8-1.7,0.5l-0.1,0c-0.5-0.3-0.7-0.7-0.7-1.3l-1-8.1l-3,5.2c-0.3,0.6-1.1,0.8-1.7,0.4c-0.6-0.3-0.8-1.1-0.4-1.7
		L462,719z"/>
	
		<polygon fill-rule="evenodd" clip-rule="evenodd" stroke="#000000" stroke-width="1.4173" stroke-linejoin="round" stroke-miterlimit="22.9256" points="
		420.9,598.5 425.2,600.9 429.4,603.4 429.4,608.2 429.4,613.1 425.2,615.5 420.9,617.9 416.7,615.5 412.5,613.1 412.5,608.2 
		412.5,603.4 416.7,600.9 	"/>
	
		<polyline fill-rule="evenodd" clip-rule="evenodd" fill="none" stroke="#000000" stroke-width="3.9682" stroke-linecap="round" stroke-linejoin="round" stroke-miterlimit="22.9256" points="
		398,598.3 405.2,598.3 420.9,575.6 436.6,598.3 443.9,598.3 	"/>
	
		<line fill-rule="evenodd" clip-rule="evenodd" fill="none" stroke="#000000" stroke-width="3.9682" stroke-linecap="round" stroke-linejoin="round" stroke-miterlimit="22.9256" x1="346.7" y1="664.7" x2="346.7" y2="624"/>
	
		<path fill-rule="evenodd" clip-rule="evenodd" fill="none" stroke="#000000" stroke-width="3.9682" stroke-linecap="round" stroke-linejoin="round" stroke-miterlimit="22.9256" d="
		M346.7,624c-0.1-25.7,5-79.1,10.2-103"/>
	
		<line fill-rule="evenodd" clip-rule="evenodd" fill="none" stroke="#000000" stroke-width="3.9682" stroke-linecap="round" stroke-linejoin="round" stroke-miterlimit="22.9256" x1="356.9" y1="521.1" x2="362.2" y2="521.1"/>
	
		<path fill-rule="evenodd" clip-rule="evenodd" fill="none" stroke="#000000" stroke-width="3.9682" stroke-linecap="round" stroke-linejoin="round" stroke-miterlimit="22.9256" d="
		M362.2,521.1c5.2,23.9,10.3,77.3,10.2,103"/>
	
		<polyline fill-rule="evenodd" clip-rule="evenodd" fill="none" stroke="#000000" stroke-width="3.9682" stroke-linecap="round" stroke-linejoin="round" stroke-miterlimit="22.9256" points="
		372.4,624 372.4,651.7 346.7,664.7 	"/>
	
		<line fill-rule="evenodd" clip-rule="evenodd" fill="none" stroke="#000000" stroke-width="3.9682" stroke-linecap="round" stroke-linejoin="round" stroke-miterlimit="22.9256" x1="397.6" y1="564.5" x2="445.2" y2="564.8"/>
	
		<path fill-rule="evenodd" clip-rule="evenodd" stroke="#000000" stroke-width="1.4173" stroke-linejoin="round" stroke-miterlimit="22.9256" d="
		M379.2,490.6c0.8-0.8,1.9-1.2,3-1.2l0.1-0.1l0.1-0.1l0.1-0.1l0.1-0.1v0l0.1-0.1l0.1-0.1l0.1-0.1v0l0.1-0.1v0l0.1-0.1l0.1-0.1v0
		l0.1-0.1v0l0.1,0v0l0.1,0l0.1,0l0.1,0v0l0.1,0l0.1,0l0.1,0v0l0.1,0v0l0.1,0l0.1,0v0l0.1,0l0.1,0l0.1,0l0.1,0l0.1,0l0.1,0v0l0.1,0v0
		l0.1,0v0l0.1,0l0.1,0v0l0.1,0l0.1,0v0l0.1,0l0.1,0v0l0.1,0v0l0.1,0v0l0.1,0l0.1,0l0.1,0l0.1,0l0.1,0l0.1,0v0l0.1,0l0.1,0v0l0.1,0v0
		l0.1,0l0.1,0h0c0.1,0,0.1,0.1,0.2,0.1c0.1,0,0.1,0.1,0.2,0.1v0l0.1,0v0l0.1,0.1v0l0.1,0.1l0.1,0.1v0l0.1,0.1v0
		c0.2,0.1,0.3,0.2,0.5,0.4l0.1,0.1c1.1,0,2.2,0.4,3,1.2c0.8,0.8,1.2,1.9,1.2,3c0.8,0.8,1.2,1.8,1.2,3c0,1.2-0.5,2.2-1.2,3
		c0,1.1-0.4,2.2-1.2,3c-0.8,0.8-1.9,1.2-3,1.2l-0.1,0.1c-0.1,0.1-0.3,0.3-0.5,0.4v0l-0.1,0.1v0l-0.1,0.1v0l-0.1,0.1l-0.1,0.1v0
		l-0.1,0c-0.1,0-0.1,0.1-0.2,0.1c-0.1,0-0.1,0.1-0.2,0.1h0l-0.1,0v0l-0.1,0v0l-0.1,0v0l-0.1,0v0l-0.1,0v0l-0.1,0v0l-0.1,0l-0.1,0v0
		l-0.1,0v0l-0.1,0v0l-0.1,0v0l-0.1,0v0l-0.1,0l-0.1,0v0l-0.1,0v0l-0.1,0l-0.1,0v0l-0.1,0v0l-0.1,0l-0.1,0v0l-0.1,0v0l-0.1,0v0
		l-0.1,0v0l-0.1,0v0l-0.1,0l-0.1,0v0l-0.1,0v0l-0.1,0v0l-0.1,0v0l-0.1,0v0l-0.1,0v0l-0.1,0l-0.1,0v0l-0.1,0l-0.1,0l-0.1,0l-0.1,0v0
		l-0.1-0.1l-0.1-0.1v0l-0.1-0.1v0l-0.1-0.1v0l-0.1-0.1v0l-0.1-0.1l-0.1-0.1l-0.1-0.1l-0.1-0.1l-0.1-0.1l-0.1-0.1
		c-1.1,0-2.2-0.4-3-1.2c-0.8-0.8-1.2-1.9-1.2-3c-0.8-0.8-1.2-1.8-1.2-3c0-1.2,0.5-2.2,1.2-3C378,492.5,378.4,491.4,379.2,490.6
		L379.2,490.6z M385.2,493L385.2,493c-1.9,0-3.5,1.6-3.5,3.5c0,1.9,1.6,3.5,3.5,3.5c1.9,0,3.5-1.6,3.5-3.5
		C388.7,494.6,387.1,493,385.2,493z"/>
	
		<path fill-rule="evenodd" clip-rule="evenodd" stroke="#000000" stroke-width="1.4173" stroke-linejoin="round" stroke-miterlimit="22.9256" d="
		M354.1,507.9c0.8-0.8,1.7-1.1,2.7-1.1l0.1-0.1l0.1-0.1l0.1-0.1l0.1-0.1v0l0.1-0.1v0l0.1-0.1v0l0.1-0.1v0l0.1-0.1v0l0.1-0.1v0l0.1,0
		l0.1,0v0l0.1,0l0.1,0v0l0.1,0l0.1,0v0l0.1,0l0.1,0v0l0.1,0v0l0.1,0v0l0.1,0v0l0.1,0v0l0.1,0l0.1,0l0.1,0v0l0.1,0v0l0.1,0v0l0.1,0v0
		l0.1,0v0l0.1,0v0l0.1,0v0l0.1,0v0l0.1,0l0.1,0v0l0.1,0v0l0.1,0v0l0.1,0v0l0.1,0v0l0.1,0v0l0.1,0v0l0.1,0v0l0.1,0l0.1,0l0.1,0v0
		l0.1,0v0l0.1,0v0l0.1,0v0l0.1,0v0l0.1,0c0.1,0,0.1,0.1,0.2,0.1c0.1,0,0.1,0.1,0.2,0.1l0.1,0v0l0.1,0l0.1,0v0l0.1,0.1v0l0.1,0.1v0
		c0.2,0.1,0.3,0.2,0.4,0.4l0.1,0.1c1,0,2,0.4,2.7,1.1c0.8,0.8,1.1,1.7,1.1,2.7c0.7,0.7,1.1,1.7,1.1,2.7c0,1.1-0.4,2-1.1,2.7
		c0,1-0.4,2-1.1,2.7c-0.8,0.8-1.7,1.1-2.7,1.1l-0.1,0.1c-0.1,0.1-0.3,0.2-0.4,0.4l-0.1,0.1l-0.1,0.1v0l-0.1,0v0l-0.1,0v0l-0.1,0
		c-0.1,0-0.1,0.1-0.2,0.1c-0.1,0-0.1,0.1-0.2,0.1l-0.1,0v0l-0.1,0l-0.1,0v0l-0.1,0l-0.1,0v0l-0.1,0l-0.1,0l-0.1,0l-0.1,0v0l-0.1,0v0
		l-0.1,0v0l-0.1,0l-0.1,0l-0.1,0v0l-0.1,0v0l-0.1,0l-0.1,0v0l-0.1,0v0l-0.1,0l-0.1,0l-0.1,0v0l-0.1,0v0l-0.1,0v0l-0.1,0l-0.1,0
		l-0.1,0l-0.1,0v0l-0.1,0l-0.1,0v0l-0.1,0l-0.1,0v0l-0.1,0l-0.1,0v0l-0.1,0l-0.1,0v0l-0.1,0l-0.1,0v0l-0.1,0v0l-0.1,0v0l-0.1-0.1
		l-0.1-0.1l-0.1-0.1l-0.1-0.1v0l-0.1-0.1v0l-0.1-0.1v0l-0.1-0.1l-0.1-0.1l-0.1-0.1c-1,0-2-0.4-2.7-1.1c-0.8-0.8-1.1-1.7-1.1-2.7
		c-0.7-0.7-1.1-1.7-1.1-2.7c0-1.1,0.4-2,1.1-2.7C352.9,509.6,353.3,508.6,354.1,507.9L354.1,507.9z M359.5,510.1L359.5,510.1
		c-1.8,0-3.2,1.4-3.2,3.2c0,1.8,1.4,3.2,3.2,3.2c1.8,0,3.2-1.4,3.2-3.2C362.7,511.5,361.3,510.1,359.5,510.1z"/>
	
		<line fill-rule="evenodd" clip-rule="evenodd" fill="none" stroke="#000000" stroke-width="3.9682" stroke-linecap="round" stroke-linejoin="round" stroke-miterlimit="22.9256" x1="372.3" y1="651.7" x2="372.3" y2="607.9"/>
	
		<path fill-rule="evenodd" clip-rule="evenodd" fill="none" stroke="#000000" stroke-width="3.9682" stroke-linecap="round" stroke-linejoin="round" stroke-miterlimit="22.9256" d="
		M372.3,607.9c-0.1-25.7,5-79.1,10.2-103"/>
	
		<line fill-rule="evenodd" clip-rule="evenodd" fill="none" stroke="#000000" stroke-width="3.9682" stroke-linecap="round" stroke-linejoin="round" stroke-miterlimit="22.9256" x1="382.5" y1="505" x2="387.8" y2="505"/>
	
		<path fill-rule="evenodd" clip-rule="evenodd" fill="none" stroke="#000000" stroke-width="3.9682" stroke-linecap="round" stroke-linejoin="round" stroke-miterlimit="22.9256" d="
		M387.8,505c5.2,23.9,10.3,77.3,10.2,103"/>
	
		<polyline fill-rule="evenodd" clip-rule="evenodd" fill="none" stroke="#000000" stroke-width="3.9682" stroke-linecap="round" stroke-linejoin="round" stroke-miterlimit="22.9256" points="
		398,607.9 398,638.6 372.3,651.7 	"/>
	
		<line fill-rule="evenodd" clip-rule="evenodd" fill="none" stroke="#000000" stroke-width="3.9682" stroke-linecap="round" stroke-linejoin="round" stroke-miterlimit="22.9256" x1="374.5" y1="517.2" x2="395.9" y2="517.2"/>
	
		<line fill-rule="evenodd" clip-rule="evenodd" fill="none" stroke="#000000" stroke-width="3.9682" stroke-linecap="round" stroke-linejoin="round" stroke-miterlimit="22.9256" x1="348.9" y1="533.2" x2="370.2" y2="533.2"/>
	
		<line fill-rule="evenodd" clip-rule="evenodd" fill="none" stroke="#000000" stroke-width="3.9682" stroke-linecap="round" stroke-linejoin="round" stroke-miterlimit="22.9256" x1="385.2" y1="644.9" x2="385.2" y2="610.4"/>
	
		<line fill-rule="evenodd" clip-rule="evenodd" fill="none" stroke="#000000" stroke-width="3.9682" stroke-linecap="round" stroke-linejoin="round" stroke-miterlimit="22.9256" x1="495.2" y1="664.7" x2="495.2" y2="624"/>
	
		<path fill-rule="evenodd" clip-rule="evenodd" fill="none" stroke="#000000" stroke-width="3.9682" stroke-linecap="round" stroke-linejoin="round" stroke-miterlimit="22.9256" d="
		M495.2,624c0.1-25.7-5-79.1-10.2-103"/>
	
		<line fill-rule="evenodd" clip-rule="evenodd" fill="none" stroke="#000000" stroke-width="3.9682" stroke-linecap="round" stroke-linejoin="round" stroke-miterlimit="22.9256" x1="485" y1="521.1" x2="479.7" y2="521.1"/>
	
		<path fill-rule="evenodd" clip-rule="evenodd" fill="none" stroke="#000000" stroke-width="3.9682" stroke-linecap="round" stroke-linejoin="round" stroke-miterlimit="22.9256" d="
		M479.7,521.1c-5.2,23.9-10.3,77.3-10.2,103"/>
	
		<polyline fill-rule="evenodd" clip-rule="evenodd" fill="none" stroke="#000000" stroke-width="3.9682" stroke-linecap="round" stroke-linejoin="round" stroke-miterlimit="22.9256" points="
		469.5,624 469.5,651.7 495.2,664.7 	"/>
	
		<path fill-rule="evenodd" clip-rule="evenodd" stroke="#000000" stroke-width="1.4173" stroke-linejoin="round" stroke-miterlimit="22.9256" d="
		M462.6,490.6c-0.8-0.8-1.9-1.2-3-1.2l-0.1-0.1l-0.1-0.1l-0.1-0.1l-0.1-0.1v0l-0.1-0.1l-0.1-0.1l-0.1-0.1v0l-0.1-0.1v0l-0.1-0.1
		l-0.1-0.1v0l-0.1-0.1v0l-0.1,0v0l-0.1,0l-0.1,0l-0.1,0v0l-0.1,0l-0.1,0l-0.1,0v0l-0.1,0v0l-0.1,0l-0.1,0v0l-0.1,0l-0.1,0l-0.1,0
		l-0.1,0l-0.1,0l-0.1,0v0l-0.1,0v0l-0.1,0v0l-0.1,0l-0.1,0v0l-0.1,0l-0.1,0v0l-0.1,0l-0.1,0v0l-0.1,0v0l-0.1,0v0l-0.1,0l-0.1,0
		l-0.1,0l-0.1,0l-0.1,0l-0.1,0v0l-0.1,0l-0.1,0v0l-0.1,0v0l-0.1,0l-0.1,0h0c-0.1,0-0.1,0.1-0.2,0.1c-0.1,0-0.1,0.1-0.2,0.1v0l-0.1,0
		v0l-0.1,0.1v0l-0.1,0.1l-0.1,0.1v0l-0.1,0.1v0c-0.2,0.1-0.3,0.2-0.5,0.4l-0.1,0.1c-1.1,0-2.2,0.4-3,1.2c-0.8,0.8-1.2,1.9-1.2,3
		c-0.8,0.8-1.2,1.8-1.2,3c0,1.2,0.5,2.2,1.2,3c0,1.1,0.4,2.2,1.2,3c0.8,0.8,1.9,1.2,3,1.2l0.1,0.1c0.1,0.1,0.3,0.3,0.5,0.4v0
		l0.1,0.1v0l0.1,0.1v0l0.1,0.1l0.1,0.1v0l0.1,0c0.1,0,0.1,0.1,0.2,0.1c0.1,0,0.1,0.1,0.2,0.1h0l0.1,0v0l0.1,0v0l0.1,0v0l0.1,0v0
		l0.1,0v0l0.1,0v0l0.1,0l0.1,0v0l0.1,0v0l0.1,0v0l0.1,0v0l0.1,0v0l0.1,0l0.1,0v0l0.1,0v0l0.1,0l0.1,0v0l0.1,0v0l0.1,0l0.1,0v0l0.1,0
		v0l0.1,0v0l0.1,0v0l0.1,0v0l0.1,0l0.1,0v0l0.1,0v0l0.1,0v0l0.1,0v0l0.1,0v0l0.1,0v0l0.1,0l0.1,0v0l0.1,0l0.1,0l0.1,0l0.1,0v0
		l0.1-0.1l0.1-0.1v0l0.1-0.1v0l0.1-0.1v0l0.1-0.1v0l0.1-0.1l0.1-0.1l0.1-0.1l0.1-0.1l0.1-0.1l0.1-0.1c1.1,0,2.2-0.4,3-1.2
		c0.8-0.8,1.2-1.9,1.2-3c0.8-0.8,1.2-1.8,1.2-3c0-1.2-0.5-2.2-1.2-3C463.9,492.5,463.5,491.4,462.6,490.6L462.6,490.6z M456.7,493
		L456.7,493c1.9,0,3.5,1.6,3.5,3.5c0,1.9-1.6,3.5-3.5,3.5c-1.9,0-3.5-1.6-3.5-3.5C453.2,494.6,454.8,493,456.7,493z"/>
	
		<path fill-rule="evenodd" clip-rule="evenodd" stroke="#000000" stroke-width="1.4173" stroke-linejoin="round" stroke-miterlimit="22.9256" d="
		M487.8,507.9c-0.8-0.8-1.7-1.1-2.7-1.1l-0.1-0.1l-0.1-0.1v0l-0.1-0.1l-0.1-0.1v0l-0.1-0.1v0l-0.1-0.1v0l-0.1-0.1v0l-0.1-0.1v0
		l-0.1-0.1v0l-0.1,0l-0.1,0v0l-0.1,0v0l-0.1,0v0l-0.1,0l-0.1,0v0l-0.1,0l-0.1,0v0l-0.1,0v0l-0.1,0v0l-0.1,0v0l-0.1,0v0l-0.1,0v0
		l-0.1,0l-0.1,0v0l-0.1,0v0l-0.1,0v0l-0.1,0v0l-0.1,0v0l-0.1,0v0l-0.1,0v0l-0.1,0v0l-0.1,0l-0.1,0v0l-0.1,0v0l-0.1,0v0l-0.1,0v0
		l-0.1,0v0l-0.1,0v0l-0.1,0v0l-0.1,0v0l-0.1,0l-0.1,0v0l-0.1,0v0l-0.1,0v0l-0.1,0v0l-0.1,0v0l-0.1,0v0l-0.1,0h0
		c-0.1,0-0.1,0.1-0.2,0.1c-0.1,0-0.1,0.1-0.2,0.1v0l-0.1,0v0l-0.1,0l-0.1,0v0l-0.1,0.1v0l-0.1,0.1v0c-0.2,0.1-0.3,0.2-0.4,0.4
		l-0.1,0.1c-1,0-2,0.4-2.7,1.1c-0.8,0.8-1.1,1.7-1.1,2.7c-0.7,0.7-1.1,1.7-1.1,2.7c0,1.1,0.4,2,1.1,2.7c0,1,0.4,2,1.1,2.7
		c0.8,0.8,1.7,1.1,2.7,1.1l0.1,0.1c0.1,0.1,0.3,0.2,0.4,0.4l0.1,0.1l0.1,0.1v0l0.1,0v0l0.1,0v0l0.1,0v0c0.1,0,0.1,0.1,0.2,0.1
		c0.1,0,0.1,0.1,0.2,0.1h0l0.1,0v0l0.1,0l0.1,0v0l0.1,0l0.1,0v0l0.1,0v0l0.1,0l0.1,0l0.1,0v0l0.1,0v0l0.1,0v0l0.1,0l0.1,0l0.1,0v0
		l0.1,0v0l0.1,0l0.1,0v0l0.1,0v0l0.1,0l0.1,0l0.1,0v0l0.1,0v0l0.1,0v0l0.1,0l0.1,0l0.1,0v0l0.1,0v0l0.1,0l0.1,0v0l0.1,0l0.1,0v0
		l0.1,0l0.1,0v0l0.1,0l0.1,0v0l0.1,0v0l0.1,0v0l0.1,0v0l0.1,0v0l0.1-0.1l0.1-0.1l0.1-0.1l0.1-0.1v0l0.1-0.1v0l0.1-0.1v0l0.1-0.1v0
		l0.1-0.1l0.1-0.1c1,0,2-0.4,2.7-1.1c0.8-0.8,1.1-1.7,1.1-2.7c0.7-0.7,1.1-1.7,1.1-2.7c0-1.1-0.4-2-1.1-2.7
		C489,509.6,488.6,508.6,487.8,507.9L487.8,507.9z M482.4,510.1L482.4,510.1c1.8,0,3.2,1.4,3.2,3.2c0,1.8-1.4,3.2-3.2,3.2
		c-1.8,0-3.2-1.4-3.2-3.2C479.1,511.5,480.6,510.1,482.4,510.1z"/>
	
		<line fill-rule="evenodd" clip-rule="evenodd" fill="none" stroke="#000000" stroke-width="3.9682" stroke-linecap="round" stroke-linejoin="round" stroke-miterlimit="22.9256" x1="469.5" y1="651.7" x2="469.5" y2="607.9"/>
	
		<path fill-rule="evenodd" clip-rule="evenodd" fill="none" stroke="#000000" stroke-width="3.9682" stroke-linecap="round" stroke-linejoin="round" stroke-miterlimit="22.9256" d="
		M469.5,607.9c0.1-25.7-5-79.1-10.2-103"/>
	
		<line fill-rule="evenodd" clip-rule="evenodd" fill="none" stroke="#000000" stroke-width="3.9682" stroke-linecap="round" stroke-linejoin="round" stroke-miterlimit="22.9256" x1="459.4" y1="505" x2="454.1" y2="505"/>
	
		<path fill-rule="evenodd" clip-rule="evenodd" fill="none" stroke="#000000" stroke-width="3.9682" stroke-linecap="round" stroke-linejoin="round" stroke-miterlimit="22.9256" d="
		M454.1,505c-5.2,23.9-10.3,77.3-10.2,103"/>
	
		<polyline fill-rule="evenodd" clip-rule="evenodd" fill="none" stroke="#000000" stroke-width="3.9682" stroke-linecap="round" stroke-linejoin="round" stroke-miterlimit="22.9256" points="
		443.9,607.9 443.9,638.6 469.5,651.7 	"/>
	
		<line fill-rule="evenodd" clip-rule="evenodd" fill="none" stroke="#000000" stroke-width="3.9682" stroke-linecap="round" stroke-linejoin="round" stroke-miterlimit="22.9256" x1="467.4" y1="517.2" x2="446" y2="517.2"/>
	
		<line fill-rule="evenodd" clip-rule="evenodd" fill="none" stroke="#000000" stroke-width="3.9682" stroke-linecap="round" stroke-linejoin="round" stroke-miterlimit="22.9256" x1="493" y1="533.2" x2="471.7" y2="533.2"/>
	
		<line fill-rule="evenodd" clip-rule="evenodd" fill="none" stroke="#000000" stroke-width="3.9682" stroke-linecap="round" stroke-linejoin="round" stroke-miterlimit="22.9256" x1="456.7" y1="644.9" x2="456.7" y2="610.4"/>
	
		<line fill-rule="evenodd" clip-rule="evenodd" fill="none" stroke="#000000" stroke-width="3.9682" stroke-linecap="round" stroke-linejoin="round" stroke-miterlimit="22.9256" x1="359.5" y1="658" x2="359.5" y2="623.6"/>
	
		<line fill-rule="evenodd" clip-rule="evenodd" fill="none" stroke="#000000" stroke-width="3.9682" stroke-linecap="round" stroke-linejoin="round" stroke-miterlimit="22.9256" x1="482.4" y1="658" x2="482.4" y2="623.6"/>
	
		<polygon fill-rule="evenodd" clip-rule="evenodd" fill="none" stroke="#000000" stroke-width="3.9682" stroke-linecap="round" stroke-linejoin="round" stroke-miterlimit="22.9256" points="
		495.2,664.7 420.9,627 346.7,664.7 346.7,700 495.2,700 	"/>
	
		<polygon fill-rule="evenodd" clip-rule="evenodd" fill="none" stroke="#000000" stroke-width="3.9682" stroke-linecap="round" stroke-linejoin="round" stroke-miterlimit="22.9256" points="
		361.8,679.6 386.5,667 386.5,700 361.8,700 	"/>
	
		<polygon fill-rule="evenodd" clip-rule="evenodd" fill="none" stroke="#000000" stroke-width="3.9682" stroke-linecap="round" stroke-linejoin="round" stroke-miterlimit="22.9256" points="
		420.9,649.5 440.3,659.5 440.3,700 401.6,700 401.6,659.4 	"/>
	
		<polygon fill-rule="evenodd" clip-rule="evenodd" fill="none" stroke="#000000" stroke-width="3.9682" stroke-linecap="round" stroke-linejoin="round" stroke-miterlimit="22.9256" points="
		480.1,679.6 455.4,667 455.4,700 480.1,700 	"/>
	
		<rect x="412.9" y="671.3" fill-rule="evenodd" clip-rule="evenodd" fill="none" stroke="#000000" stroke-width="3.9682" stroke-linecap="round" stroke-linejoin="round" stroke-miterlimit="22.9256" width="16.1" height="28.6"/>
	
		<path fill-rule="evenodd" clip-rule="evenodd" fill="#B81E23" stroke="#000000" stroke-width="3.9679" stroke-linejoin="round" stroke-miterlimit="22.9256" d="
		M420.9,687.7c1.1,0,2.1-0.9,2.1-2.1c0-1.1-0.9-2.1-2.1-2.1c-1.1,0-2.1,0.9-2.1,2.1C418.9,686.8,419.8,687.7,420.9,687.7z"/>
	<path fill-rule="evenodd" clip-rule="evenodd" d="M352.9,480.9c0.8,0,1.4-0.6,1.4-1.4v-7.1l5.8,7.6c0.4,0.5,0.8,0.9,1.5,0.9h0.1
		c0.8,0,1.5-0.6,1.5-1.5v-10.5c0-0.8-0.6-1.4-1.4-1.4c-0.8,0-1.4,0.6-1.4,1.4v6.8l-5.6-7.4c-0.4-0.5-0.8-0.9-1.5-0.9h-0.3
		c-0.8,0-1.5,0.6-1.5,1.5v10.5C351.5,480.3,352.1,480.9,352.9,480.9z"/>
	<path fill-rule="evenodd" clip-rule="evenodd" d="M372.8,481c4.1,0,7.1-3.1,7.1-6.8v0c0-3.8-2.9-6.8-7-6.8c-4.1,0-7.1,3.1-7.1,6.8
		v0C365.8,478,368.7,481,372.8,481L372.8,481z M368.9,474.1L368.9,474.1c0-2.3,1.6-4.1,4-4.1c2.3,0,4,1.9,4,4.2v0
		c0,2.3-1.6,4.1-4,4.1C370.5,478.3,368.9,476.5,368.9,474.1L368.9,474.1z"/>
	<path fill-rule="evenodd" clip-rule="evenodd" d="M383.9,480.8h3.7c4.2,0,7-2.9,7-6.6v0c0-3.7-2.9-6.6-7-6.6h-3.7
		c-0.8,0-1.5,0.6-1.5,1.5v10.3C382.5,480.2,383.1,480.8,383.9,480.8L383.9,480.8z M385.4,470.2L385.4,470.2h2.2c2.4,0,4,1.6,4,4v0
		c0,2.3-1.6,4-4,4h-2.2V470.2z"/>
	<path fill-rule="evenodd" clip-rule="evenodd" d="M398.7,480.8h7.4c0.7,0,1.3-0.6,1.3-1.3s-0.6-1.3-1.3-1.3h-6v-2.8h5
		c0.7,0,1.3-0.6,1.3-1.3c0-0.7-0.6-1.3-1.3-1.3h-5v-2.7h5.9c0.7,0,1.3-0.6,1.3-1.3c0-0.7-0.6-1.3-1.3-1.3h-7.3
		c-0.8,0-1.5,0.6-1.5,1.5v10.3C397.3,480.2,397.9,480.8,398.7,480.8z"/>
	<path fill-rule="evenodd" clip-rule="evenodd" d="M409.7,479.4c1.5,1.1,3.2,1.6,5,1.6c2.9,0,4.9-1.5,4.9-4.1v0c0-2.3-1.5-3.3-4.2-4
		c-2.3-0.6-2.9-0.9-2.9-1.7v0c0-0.6,0.6-1.2,1.7-1.2c0.9,0,1.8,0.3,2.8,0.9c0.2,0.1,0.5,0.2,0.7,0.2c0.8,0,1.4-0.6,1.4-1.3
		c0-0.6-0.3-1-0.6-1.2c-1.2-0.8-2.6-1.2-4.2-1.2c-2.7,0-4.6,1.6-4.6,4v0c0,2.6,1.7,3.4,4.4,4c2.2,0.6,2.7,0.9,2.7,1.7v0
		c0,0.8-0.7,1.2-1.9,1.2c-1.3,0-2.4-0.5-3.4-1.2c-0.2-0.1-0.5-0.3-0.8-0.3c-0.8,0-1.4,0.6-1.4,1.3
		C409.1,478.8,409.3,479.2,409.7,479.4z"/>
	<path fill-rule="evenodd" clip-rule="evenodd" d="M428.2,481c2.1,0,3.5-0.6,4.7-1.7c0.3-0.2,0.5-0.6,0.5-1c0-0.7-0.6-1.3-1.4-1.3
		c-0.3,0-0.6,0.1-0.9,0.3c-0.8,0.7-1.6,1-2.9,1c-2.3,0-3.8-1.9-3.8-4.2v0c0-2.3,1.6-4.1,3.8-4.1c1,0,1.9,0.3,2.7,0.9
		c0.2,0.1,0.5,0.3,0.9,0.3c0.8,0,1.4-0.6,1.4-1.4c0-0.5-0.3-0.9-0.6-1.2c-1.1-0.8-2.4-1.3-4.4-1.3c-4.1,0-6.9,3.1-6.9,6.8v0
		C421.4,478,424.3,481,428.2,481z"/>
	<path fill-rule="evenodd" clip-rule="evenodd" d="M437.4,480.9c0.8,0,1.5-0.6,1.5-1.5v-4h5.4v4c0,0.8,0.6,1.5,1.5,1.5
		c0.8,0,1.5-0.6,1.5-1.5v-10.5c0-0.8-0.6-1.5-1.5-1.5c-0.8,0-1.5,0.6-1.5,1.5v3.9h-5.4v-3.9c0-0.8-0.6-1.5-1.5-1.5
		c-0.8,0-1.5,0.6-1.5,1.5v10.5C436,480.3,436.6,480.9,437.4,480.9z"/>
	<path fill-rule="evenodd" clip-rule="evenodd" d="M456.8,481c4.1,0,7-3.1,7-6.8v0c0-3.8-2.9-6.8-7-6.8c-4.1,0-7.1,3.1-7.1,6.8v0
		C449.8,478,452.7,481,456.8,481L456.8,481z M452.8,474.1L452.8,474.1c0-2.3,1.6-4.1,4-4.1c2.3,0,4,1.9,4,4.2v0c0,2.3-1.6,4.1-4,4.1
		C454.5,478.3,452.8,476.5,452.8,474.1L452.8,474.1z"/>
	<path fill-rule="evenodd" clip-rule="evenodd" d="M472.9,481c4.1,0,7.1-3.1,7.1-6.8v0c0-3.8-2.9-6.8-7-6.8c-4.1,0-7.1,3.1-7.1,6.8
		v0C465.9,478,468.8,481,472.9,481L472.9,481z M468.9,474.1L468.9,474.1c0-2.3,1.6-4.1,4-4.1c2.3,0,4,1.9,4,4.2v0
		c0,2.3-1.6,4.1-4,4.1C470.6,478.3,468.9,476.5,468.9,474.1L468.9,474.1z"/>
	<path fill-rule="evenodd" clip-rule="evenodd" d="M484,480.8h6.8c0.7,0,1.3-0.6,1.3-1.3c0-0.7-0.6-1.3-1.3-1.3h-5.4v-9.2
		c0-0.8-0.6-1.5-1.5-1.5c-0.8,0-1.5,0.6-1.5,1.5v10.4C482.5,480.2,483.2,480.8,484,480.8z"/>
	
		<polygon fill-rule="evenodd" clip-rule="evenodd" fill="none" stroke="#000000" stroke-width="3.9682" stroke-linecap="round" stroke-linejoin="round" stroke-miterlimit="22.9256" points="
		523.6,675.8 517.6,667.1 511.6,675.8 511.6,691.7 523.6,691.7 	"/>
	
		<polyline fill-rule="evenodd" clip-rule="evenodd" fill="none" stroke="#000000" stroke-width="3.9682" stroke-linecap="round" stroke-linejoin="round" stroke-miterlimit="22.9256" points="
		528,644.1 529.8,644.1 540.1,629.3 550.3,644.1 551.5,644.1 	"/>
	
		<polyline fill-rule="evenodd" clip-rule="evenodd" fill="none" stroke="#000000" stroke-width="3.9682" stroke-linecap="round" stroke-linejoin="round" stroke-miterlimit="22.9256" points="
		495.2,644.1 507.4,644.1 517.6,629.3 527.9,644.1 	"/>
	
		<polyline fill-rule="evenodd" clip-rule="evenodd" fill="none" stroke="#000000" stroke-width="3.9682" stroke-linecap="round" stroke-linejoin="round" stroke-miterlimit="22.9256" points="
		584.9,700 585,700 585,670.7 585,634 	"/>
	
		<path fill-rule="evenodd" clip-rule="evenodd" fill="none" stroke="#000000" stroke-width="3.9682" stroke-linecap="round" stroke-linejoin="round" stroke-miterlimit="22.9256" d="
		M585,634c0.1-25.7-4.4-53-8.9-77"/>
	
		<line fill-rule="evenodd" clip-rule="evenodd" fill="none" stroke="#000000" stroke-width="3.9682" stroke-linecap="round" stroke-linejoin="round" stroke-miterlimit="22.9256" x1="576" y1="557" x2="571.4" y2="556.9"/>
	
		<path fill-rule="evenodd" clip-rule="evenodd" fill="none" stroke="#000000" stroke-width="3.9682" stroke-linecap="round" stroke-linejoin="round" stroke-miterlimit="22.9256" d="
		M571.4,556.9c-4.4,22.2-8.8,47.3-8.9,72.3c-0.4-24.2-4.7-49.7-8.9-72.2"/>
	
		<line fill-rule="evenodd" clip-rule="evenodd" fill="none" stroke="#000000" stroke-width="3.9682" stroke-linecap="round" stroke-linejoin="round" stroke-miterlimit="22.9256" x1="553.6" y1="557" x2="548.9" y2="556.9"/>
	
		<path fill-rule="evenodd" clip-rule="evenodd" fill="none" stroke="#000000" stroke-width="3.9682" stroke-linecap="round" stroke-linejoin="round" stroke-miterlimit="22.9256" d="
		M548.9,556.9c-4.4,22.1-8.8,47.1-8.9,72c-0.4-24.3-4.7-49.8-8.9-72.3"/>
	
		<line fill-rule="evenodd" clip-rule="evenodd" fill="none" stroke="#000000" stroke-width="3.9682" stroke-linecap="round" stroke-linejoin="round" stroke-miterlimit="22.9256" x1="531.1" y1="556.5" x2="526.5" y2="556.4"/>
	
		<path fill-rule="evenodd" clip-rule="evenodd" fill="none" stroke="#000000" stroke-width="3.9682" stroke-linecap="round" stroke-linejoin="round" stroke-miterlimit="22.9256" d="
		M526.5,556.4c-4.4,22.1-8.8,47.1-8.9,72c-0.4-24.3-4.7-49.8-8.9-72.3"/>
	
		<line fill-rule="evenodd" clip-rule="evenodd" fill="none" stroke="#000000" stroke-width="3.9682" stroke-linecap="round" stroke-linejoin="round" stroke-miterlimit="22.9256" x1="508.7" y1="556.1" x2="504" y2="556"/>
	
		<path fill-rule="evenodd" clip-rule="evenodd" fill="none" stroke="#000000" stroke-width="3.9682" stroke-linecap="round" stroke-linejoin="round" stroke-miterlimit="22.9256" d="
		M504,556c-4.7,23.5-9.3,50.2-8.8,76.6"/>
	
		<polyline fill-rule="evenodd" clip-rule="evenodd" fill="none" stroke="#000000" stroke-width="3.9682" stroke-linecap="round" stroke-linejoin="round" stroke-miterlimit="22.9256" points="
		495.2,632.6 495.2,659.5 495.2,659.7 495.1,686.4 495.2,686.4 495.2,700 	"/>
	
		<path fill-rule="evenodd" clip-rule="evenodd" fill="none" stroke="#000000" stroke-width="3.9682" stroke-linecap="round" stroke-linejoin="round" stroke-miterlimit="22.9256" d="
		M495.2,700c30.5,0,59.1,0,88.4,0"/>
	
		<line fill-rule="evenodd" clip-rule="evenodd" fill="none" stroke="#000000" stroke-width="3.9682" stroke-linecap="round" stroke-linejoin="round" stroke-miterlimit="22.9256" x1="583.5" y1="700" x2="584.9" y2="700"/>
	
		<polyline fill-rule="evenodd" clip-rule="evenodd" fill="none" stroke="#000000" stroke-width="3.9682" stroke-linecap="round" stroke-linejoin="round" stroke-miterlimit="22.9256" points="
		584.9,644.1 572.8,644.1 562.5,629.3 552.3,644.1 	"/>
	
		<polyline fill-rule="evenodd" clip-rule="evenodd" fill="none" stroke="#000000" stroke-width="3.9682" stroke-linecap="round" stroke-linejoin="round" stroke-miterlimit="22.9256" points="
		528,664.7 529.8,664.7 540.1,649.9 550.3,664.7 551.5,664.7 	"/>
	
		<polyline fill-rule="evenodd" clip-rule="evenodd" fill="none" stroke="#000000" stroke-width="3.9682" stroke-linecap="round" stroke-linejoin="round" stroke-miterlimit="22.9256" points="
		495.2,664.7 507.4,664.7 517.6,649.9 527.9,664.7 	"/>
	
		<polyline fill-rule="evenodd" clip-rule="evenodd" fill="none" stroke="#000000" stroke-width="3.9682" stroke-linecap="round" stroke-linejoin="round" stroke-miterlimit="22.9256" points="
		584.9,664.7 572.8,664.7 562.5,649.9 552.3,664.7 	"/>
	
		<polygon fill-rule="evenodd" clip-rule="evenodd" fill="none" stroke="#000000" stroke-width="3.9682" stroke-linecap="round" stroke-linejoin="round" stroke-miterlimit="22.9256" points="
		546.1,675.8 540.1,667.1 534.1,675.8 534.1,691.7 546.1,691.7 	"/>
	
		<polygon fill-rule="evenodd" clip-rule="evenodd" fill="none" stroke="#000000" stroke-width="3.9682" stroke-linecap="round" stroke-linejoin="round" stroke-miterlimit="22.9256" points="
		568.5,675.8 562.5,667.1 556.5,675.8 556.5,691.7 568.5,691.7 	"/>
	
		<path fill-rule="evenodd" clip-rule="evenodd" stroke="#000000" stroke-width="1.1353" stroke-linejoin="round" stroke-miterlimit="22.9256" d="
		M578.1,546.6c-0.6-0.6-1.4-0.9-2.2-0.9l-0.1-0.1l-0.1-0.1v0l-0.1,0l-0.1,0v0l-0.1,0v0l-0.1,0l-0.1,0v0l-0.1,0v0l-0.1,0v0l-0.1,0v0
		l-0.1,0v0l-0.1,0v0l-0.1,0l-0.1,0l-0.1,0v0l-0.1,0l-0.1,0v0l-0.1,0v0l-0.1,0v0l-0.1,0v0l-0.1,0v0l-0.1,0v0l-0.1,0l-0.1,0v0l-0.1,0
		v0l-0.1,0v0l-0.1,0l-0.1,0v0l-0.1,0v0l-0.1,0l-0.1,0v0l-0.1,0l-0.1,0v0l-0.1,0l-0.1,0v0l-0.1,0v0l-0.1,0l-0.1,0v0l-0.1,0v0l-0.1,0
		v0l-0.1,0l-0.1,0v0l-0.1,0v0l-0.1,0v0l-0.1,0v0l-0.1,0v0l-0.1,0v0l-0.1,0h0c0,0-0.1,0-0.1,0.1c0,0-0.1,0-0.1,0.1v0l-0.1,0v0l-0.1,0
		v0l-0.1,0v0l-0.1,0v0l-0.1,0v0c-0.1,0.1-0.2,0.2-0.3,0.3l-0.1,0.1c-0.8,0-1.6,0.3-2.2,0.9c-0.6,0.6-0.9,1.4-0.9,2.2
		c-0.6,0.6-0.9,1.3-0.9,2.2c0,0.9,0.3,1.6,0.9,2.2c0,0.8,0.3,1.6,0.9,2.2c0.6,0.6,1.4,0.9,2.2,0.9l0.1,0.1c0.1,0.1,0.2,0.2,0.3,0.3
		v0l0.1,0v0l0.1,0l0.1,0l0.1,0v0l0.1,0v0c0,0,0.1,0,0.1,0.1c0,0,0.1,0,0.1,0.1h0l0.1,0v0l0.1,0l0.1,0l0.1,0l0.1,0l0.1,0l0.1,0l0.1,0
		v0l0.1,0l0.1,0l0.1,0l0.1,0l0.1,0l0.1,0v0l0.1,0v0l0.1,0l0.1,0v0l0.1,0v0l0.1,0l0.1,0l0.1,0l0.1,0l0.1,0l0.1,0v0l0.1,0l0.1,0l0.1,0
		l0.1,0l0.1,0l0.1,0l0.1,0v0l0.1,0l0.1,0l0.1,0l0.1,0l0.1,0v0l0.1,0v0l0.1,0l0.1,0l0.1,0v0l0.1,0v0l0.1,0l0.1,0v0l0.1,0v0l0.1,0v0
		l0.1,0v0l0.1-0.1l0.1-0.1c0.8,0,1.6-0.3,2.2-0.9c0.6-0.6,0.9-1.4,0.9-2.2c0.6-0.6,0.9-1.3,0.9-2.2c0-0.9-0.3-1.6-0.9-2.2
		C579,548,578.7,547.2,578.1,546.6L578.1,546.6z M573.7,548.4L573.7,548.4c1.4,0,2.6,1.2,2.6,2.6c0,1.4-1.2,2.6-2.6,2.6
		c-1.4,0-2.6-1.2-2.6-2.6C571.1,549.6,572.3,548.4,573.7,548.4z"/>
	
		<path fill-rule="evenodd" clip-rule="evenodd" stroke="#000000" stroke-width="1.1353" stroke-linejoin="round" stroke-miterlimit="22.9256" d="
		M555.6,546.6c-0.6-0.6-1.4-0.9-2.2-0.9l-0.1-0.1l-0.1-0.1v0l-0.1,0l-0.1,0v0l-0.1,0v0l-0.1,0l-0.1,0v0l-0.1,0v0l-0.1,0v0l-0.1,0v0
		l-0.1,0v0l-0.1,0v0l-0.1,0l-0.1,0l-0.1,0v0l-0.1,0l-0.1,0v0l-0.1,0v0l-0.1,0v0l-0.1,0v0l-0.1,0v0l-0.1,0v0l-0.1,0l-0.1,0v0l-0.1,0
		v0l-0.1,0v0l-0.1,0l-0.1,0v0l-0.1,0v0l-0.1,0l-0.1,0v0l-0.1,0l-0.1,0v0l-0.1,0l-0.1,0v0l-0.1,0v0l-0.1,0l-0.1,0v0l-0.1,0v0l-0.1,0
		v0l-0.1,0l-0.1,0v0l-0.1,0v0l-0.1,0v0l-0.1,0v0l-0.1,0v0l-0.1,0v0l-0.1,0h0c0,0-0.1,0-0.1,0.1c0,0-0.1,0-0.1,0.1v0l-0.1,0v0l-0.1,0
		v0l-0.1,0v0l-0.1,0v0l-0.1,0v0c-0.1,0.1-0.2,0.2-0.3,0.3l-0.1,0.1c-0.8,0-1.6,0.3-2.2,0.9c-0.6,0.6-0.9,1.4-0.9,2.2
		c-0.6,0.6-0.9,1.3-0.9,2.2c0,0.9,0.3,1.6,0.9,2.2c0,0.8,0.3,1.6,0.9,2.2c0.6,0.6,1.4,0.9,2.2,0.9l0.1,0.1c0.1,0.1,0.2,0.2,0.3,0.3
		v0l0.1,0v0l0.1,0l0.1,0l0.1,0v0l0.1,0v0c0,0,0.1,0,0.1,0.1c0,0,0.1,0,0.1,0.1h0l0.1,0v0l0.1,0l0.1,0l0.1,0l0.1,0l0.1,0l0.1,0l0.1,0
		v0l0.1,0l0.1,0l0.1,0l0.1,0l0.1,0l0.1,0v0l0.1,0v0l0.1,0l0.1,0v0l0.1,0v0l0.1,0l0.1,0l0.1,0l0.1,0l0.1,0l0.1,0v0l0.1,0l0.1,0l0.1,0
		l0.1,0l0.1,0l0.1,0l0.1,0v0l0.1,0l0.1,0l0.1,0l0.1,0l0.1,0v0l0.1,0v0l0.1,0l0.1,0l0.1,0v0l0.1,0v0l0.1,0l0.1,0v0l0.1,0v0l0.1,0v0
		l0.1,0v0l0.1-0.1l0.1-0.1c0.8,0,1.6-0.3,2.2-0.9c0.6-0.6,0.9-1.4,0.9-2.2c0.6-0.6,0.9-1.3,0.9-2.2c0-0.9-0.3-1.6-0.9-2.2
		C556.6,548,556.2,547.2,555.6,546.6L555.6,546.6z M551.3,548.4L551.3,548.4c1.4,0,2.6,1.2,2.6,2.6c0,1.4-1.2,2.6-2.6,2.6
		c-1.4,0-2.6-1.2-2.6-2.6C548.7,549.6,549.8,548.4,551.3,548.4z"/>
	
		<path fill-rule="evenodd" clip-rule="evenodd" stroke="#000000" stroke-width="1.1353" stroke-linejoin="round" stroke-miterlimit="22.9256" d="
		M533.2,546.2c-0.6-0.6-1.4-0.9-2.2-0.9l-0.1-0.1l-0.1-0.1v0l-0.1,0l-0.1,0v0l-0.1,0v0l-0.1,0l-0.1,0v0l-0.1,0l-0.1,0l-0.1,0l-0.1,0
		v0l-0.1,0v0l-0.1,0l-0.1,0l-0.1,0v0l-0.1,0l-0.1,0v0l-0.1,0v0l-0.1,0v0l-0.1,0v0l-0.1,0v0l-0.1,0v0l-0.1,0l-0.1,0v0l-0.1,0l-0.1,0
		v0l-0.1,0v0l-0.1,0v0l-0.1,0v0l-0.1,0l-0.1,0v0l-0.1,0l-0.1,0v0l-0.1,0l-0.1,0v0l-0.1,0v0l-0.1,0v0l-0.1,0v0l-0.1,0l-0.1,0v0
		l-0.1,0l-0.1,0v0l-0.1,0v0l-0.1,0v0l-0.1,0v0l-0.1,0v0l-0.1,0v0l-0.1,0h0c0,0-0.1,0-0.1,0.1c0,0-0.1,0-0.1,0.1v0l-0.1,0v0l-0.1,0
		l-0.1,0l-0.1,0l-0.1,0v0c-0.1,0.1-0.2,0.2-0.3,0.3l-0.1,0.1c-0.8,0-1.6,0.3-2.2,0.9c-0.6,0.6-0.9,1.4-0.9,2.2
		c-0.6,0.6-0.9,1.3-0.9,2.2c0,0.9,0.3,1.6,0.9,2.2c0,0.8,0.3,1.6,0.9,2.2c0.6,0.6,1.4,0.9,2.2,0.9l0.1,0.1c0.1,0.1,0.2,0.2,0.3,0.3
		v0l0.1,0v0l0.1,0v0l0.1,0l0.1,0v0l0.1,0v0c0,0,0.1,0,0.1,0.1c0,0,0.1,0,0.1,0.1h0l0.1,0v0l0.1,0v0l0.1,0l0.1,0l0.1,0v0l0.1,0l0.1,0
		l0.1,0l0.1,0l0.1,0l0.1,0v0l0.1,0v0l0.1,0l0.1,0v0l0.1,0v0l0.1,0l0.1,0v0l0.1,0v0l0.1,0l0.1,0v0l0.1,0v0l0.1,0l0.1,0l0.1,0l0.1,0
		l0.1,0l0.1,0v0l0.1,0l0.1,0l0.1,0v0l0.1,0v0l0.1,0l0.1,0l0.1,0l0.1,0v0l0.1,0v0l0.1,0v0l0.1,0l0.1,0v0l0.1,0v0l0.1,0v0l0.1,0l0.1,0
		v0l0.1,0v0l0.1,0v0l0.1,0v0l0.1-0.1l0.1-0.1c0.8,0,1.6-0.3,2.2-0.9c0.6-0.6,0.9-1.4,0.9-2.2c0.6-0.6,0.9-1.3,0.9-2.2
		c0-0.9-0.3-1.6-0.9-2.2C534.1,547.5,533.8,546.8,533.2,546.2L533.2,546.2z M528.8,547.9L528.8,547.9c1.4,0,2.6,1.2,2.6,2.6
		c0,1.4-1.2,2.6-2.6,2.6c-1.4,0-2.6-1.2-2.6-2.6C526.2,549.1,527.4,547.9,528.8,547.9z"/>
	
		<path fill-rule="evenodd" clip-rule="evenodd" stroke="#000000" stroke-width="1.1353" stroke-linejoin="round" stroke-miterlimit="22.9256" d="
		M510.7,545.7c-0.6-0.6-1.4-0.9-2.2-0.9l-0.1-0.1l-0.1-0.1v0l-0.1,0l-0.1,0v0l-0.1,0l-0.1,0l-0.1,0l-0.1,0v0l-0.1,0v0l-0.1,0v0
		l-0.1,0v0l-0.1,0v0l-0.1,0l-0.1,0l-0.1,0v0l-0.1,0l-0.1,0v0l-0.1,0v0l-0.1,0l-0.1,0l-0.1,0v0l-0.1,0v0l-0.1,0l-0.1,0v0l-0.1,0v0
		l-0.1,0v0l-0.1,0v0l-0.1,0v0l-0.1,0v0l-0.1,0l-0.1,0v0l-0.1,0l-0.1,0v0l-0.1,0l-0.1,0v0l-0.1,0v0l-0.1,0v0l-0.1,0v0l-0.1,0v0
		l-0.1,0v0l-0.1,0l-0.1,0v0l-0.1,0v0l-0.1,0l-0.1,0l-0.1,0v0l-0.1,0v0l-0.1,0h0c0,0-0.1,0-0.1,0.1c0,0-0.1,0-0.1,0.1v0l-0.1,0v0
		l-0.1,0v0l-0.1,0v0l-0.1,0v0l-0.1,0c-0.1,0.1-0.2,0.2-0.3,0.3l-0.1,0.1c-0.8,0-1.6,0.3-2.2,0.9c-0.6,0.6-0.9,1.4-0.9,2.2
		c-0.6,0.6-0.9,1.3-0.9,2.2c0,0.9,0.3,1.6,0.9,2.2c0,0.8,0.3,1.6,0.9,2.2c0.6,0.6,1.4,0.9,2.2,0.9l0.1,0.1c0.1,0.1,0.2,0.2,0.3,0.3
		l0.1,0v0l0.1,0v0l0.1,0l0.1,0l0.1,0v0c0,0,0.1,0,0.1,0.1c0,0,0.1,0,0.1,0.1h0l0.1,0v0l0.1,0v0l0.1,0l0.1,0l0.1,0v0l0.1,0l0.1,0
		l0.1,0v0l0.1,0l0.1,0l0.1,0v0l0.1,0v0l0.1,0l0.1,0v0l0.1,0v0l0.1,0l0.1,0v0l0.1,0v0l0.1,0l0.1,0v0l0.1,0v0l0.1,0l0.1,0l0.1,0v0
		l0.1,0l0.1,0l0.1,0v0l0.1,0l0.1,0l0.1,0v0l0.1,0v0l0.1,0l0.1,0l0.1,0l0.1,0v0l0.1,0v0l0.1,0l0.1,0l0.1,0v0l0.1,0v0l0.1,0l0.1,0
		l0.1,0v0l0.1,0v0l0.1,0v0l0.1,0v0l0.1,0l0.1-0.1c0.8,0,1.6-0.3,2.2-0.9c0.6-0.6,0.9-1.4,0.9-2.2c0.6-0.6,0.9-1.3,0.9-2.2
		c0-0.9-0.3-1.6-0.9-2.2C511.6,547.1,511.3,546.3,510.7,545.7L510.7,545.7z M506.4,547.5L506.4,547.5c1.4,0,2.6,1.2,2.6,2.6
		c0,1.4-1.2,2.6-2.6,2.6c-1.4,0-2.6-1.2-2.6-2.6C503.8,548.6,504.9,547.5,506.4,547.5z"/>
	
		<polygon fill-rule="evenodd" clip-rule="evenodd" fill="none" stroke="#000000" stroke-width="3.9682" stroke-linecap="round" stroke-linejoin="round" stroke-miterlimit="22.9256" points="
		318.3,675.8 324.3,667.1 330.2,675.8 330.2,691.7 318.3,691.7 	"/>
	
		<polyline fill-rule="evenodd" clip-rule="evenodd" fill="none" stroke="#000000" stroke-width="3.9682" stroke-linecap="round" stroke-linejoin="round" stroke-miterlimit="22.9256" points="
		313.9,644.1 312,644.1 301.8,629.3 291.5,644.1 290.3,644.1 	"/>
	
		<polyline fill-rule="evenodd" clip-rule="evenodd" fill="none" stroke="#000000" stroke-width="3.9682" stroke-linecap="round" stroke-linejoin="round" stroke-miterlimit="22.9256" points="
		346.7,644.1 334.5,644.1 324.3,629.3 314,644.1 	"/>
	
		<polyline fill-rule="evenodd" clip-rule="evenodd" fill="none" stroke="#000000" stroke-width="3.9682" stroke-linecap="round" stroke-linejoin="round" stroke-miterlimit="22.9256" points="
		256.9,700 256.9,700 256.9,670.7 256.9,634 	"/>
	
		<path fill-rule="evenodd" clip-rule="evenodd" fill="none" stroke="#000000" stroke-width="3.9682" stroke-linecap="round" stroke-linejoin="round" stroke-miterlimit="22.9256" d="
		M256.9,634c-0.1-25.7,4.4-53,8.9-77"/>
	
		<line fill-rule="evenodd" clip-rule="evenodd" fill="none" stroke="#000000" stroke-width="3.9682" stroke-linecap="round" stroke-linejoin="round" stroke-miterlimit="22.9256" x1="265.8" y1="557" x2="270.5" y2="556.9"/>
	
		<path fill-rule="evenodd" clip-rule="evenodd" fill="none" stroke="#000000" stroke-width="3.9682" stroke-linecap="round" stroke-linejoin="round" stroke-miterlimit="22.9256" d="
		M270.5,556.9c4.4,22.2,8.8,47.3,8.9,72.3c0.4-24.2,4.7-49.7,8.9-72.2"/>
	
		<line fill-rule="evenodd" clip-rule="evenodd" fill="none" stroke="#000000" stroke-width="3.9682" stroke-linecap="round" stroke-linejoin="round" stroke-miterlimit="22.9256" x1="288.3" y1="557" x2="292.9" y2="556.9"/>
	
		<path fill-rule="evenodd" clip-rule="evenodd" fill="none" stroke="#000000" stroke-width="3.9682" stroke-linecap="round" stroke-linejoin="round" stroke-miterlimit="22.9256" d="
		M292.9,556.9c4.4,22.1,8.8,47.1,8.9,72c0.4-24.3,4.7-49.8,8.9-72.3"/>
	
		<line fill-rule="evenodd" clip-rule="evenodd" fill="none" stroke="#000000" stroke-width="3.9682" stroke-linecap="round" stroke-linejoin="round" stroke-miterlimit="22.9256" x1="310.7" y1="556.5" x2="315.4" y2="556.4"/>
	
		<path fill-rule="evenodd" clip-rule="evenodd" fill="none" stroke="#000000" stroke-width="3.9682" stroke-linecap="round" stroke-linejoin="round" stroke-miterlimit="22.9256" d="
		M315.4,556.4c4.4,22.1,8.8,47.1,8.9,72c0.4-24.3,4.7-49.8,8.9-72.3"/>
	
		<line fill-rule="evenodd" clip-rule="evenodd" fill="none" stroke="#000000" stroke-width="3.9682" stroke-linecap="round" stroke-linejoin="round" stroke-miterlimit="22.9256" x1="333.2" y1="556.1" x2="337.8" y2="556"/>
	
		<path fill-rule="evenodd" clip-rule="evenodd" fill="none" stroke="#000000" stroke-width="3.9682" stroke-linecap="round" stroke-linejoin="round" stroke-miterlimit="22.9256" d="
		M337.8,556c4.7,23.5,9.3,50.2,8.8,76.6"/>
	
		<polyline fill-rule="evenodd" clip-rule="evenodd" fill="none" stroke="#000000" stroke-width="3.9682" stroke-linecap="round" stroke-linejoin="round" stroke-miterlimit="22.9256" points="
		346.7,632.6 346.7,659.5 346.7,659.7 346.7,686.4 346.7,686.4 346.7,700 	"/>
	
		<path fill-rule="evenodd" clip-rule="evenodd" fill="none" stroke="#000000" stroke-width="3.9682" stroke-linecap="round" stroke-linejoin="round" stroke-miterlimit="22.9256" d="
		M346.7,700c-30.5,0-59.1,0-88.4,0"/>
	
		<line fill-rule="evenodd" clip-rule="evenodd" fill="none" stroke="#000000" stroke-width="3.9682" stroke-linecap="round" stroke-linejoin="round" stroke-miterlimit="22.9256" x1="258.3" y1="700" x2="256.9" y2="700"/>
	
		<polyline fill-rule="evenodd" clip-rule="evenodd" fill="none" stroke="#000000" stroke-width="3.9682" stroke-linecap="round" stroke-linejoin="round" stroke-miterlimit="22.9256" points="
		256.9,644.1 269.1,644.1 279.3,629.3 289.6,644.1 	"/>
	
		<polyline fill-rule="evenodd" clip-rule="evenodd" fill="none" stroke="#000000" stroke-width="3.9682" stroke-linecap="round" stroke-linejoin="round" stroke-miterlimit="22.9256" points="
		313.9,664.7 312,664.7 301.8,649.9 291.5,664.7 290.3,664.7 	"/>
	
		<polyline fill-rule="evenodd" clip-rule="evenodd" fill="none" stroke="#000000" stroke-width="3.9682" stroke-linecap="round" stroke-linejoin="round" stroke-miterlimit="22.9256" points="
		346.7,664.7 334.5,664.7 324.3,649.9 314,664.7 	"/>
	
		<polyline fill-rule="evenodd" clip-rule="evenodd" fill="none" stroke="#000000" stroke-width="3.9682" stroke-linecap="round" stroke-linejoin="round" stroke-miterlimit="22.9256" points="
		256.9,664.7 269.1,664.7 279.3,649.9 289.6,664.7 	"/>
	
		<polygon fill-rule="evenodd" clip-rule="evenodd" fill="none" stroke="#000000" stroke-width="3.9682" stroke-linecap="round" stroke-linejoin="round" stroke-miterlimit="22.9256" points="
		295.8,675.8 301.8,667.1 307.7,675.8 307.7,691.7 295.8,691.7 	"/>
	
		<polygon fill-rule="evenodd" clip-rule="evenodd" fill="none" stroke="#000000" stroke-width="3.9682" stroke-linecap="round" stroke-linejoin="round" stroke-miterlimit="22.9256" points="
		273.4,675.8 279.3,667.1 285.3,675.8 285.3,691.7 273.4,691.7 	"/>
	
		<path fill-rule="evenodd" clip-rule="evenodd" stroke="#000000" stroke-width="1.1353" stroke-linejoin="round" stroke-miterlimit="22.9256" d="
		M263.8,546.6c0.6-0.6,1.4-0.9,2.2-0.9l0.1-0.1l0.1-0.1v0l0.1,0l0.1,0v0l0.1,0v0l0.1,0l0.1,0v0l0.1,0v0l0.1,0v0l0.1,0v0l0.1,0v0
		l0.1,0v0l0.1,0l0.1,0l0.1,0v0l0.1,0l0.1,0v0l0.1,0v0l0.1,0v0l0.1,0v0l0.1,0v0l0.1,0v0l0.1,0l0.1,0v0l0.1,0v0l0.1,0v0l0.1,0l0.1,0v0
		l0.1,0v0l0.1,0l0.1,0v0l0.1,0l0.1,0v0l0.1,0l0.1,0v0l0.1,0v0l0.1,0l0.1,0v0l0.1,0v0l0.1,0v0l0.1,0l0.1,0v0l0.1,0v0l0.1,0v0l0.1,0v0
		l0.1,0v0l0.1,0v0l0.1,0h0c0,0,0.1,0,0.1,0.1c0,0,0.1,0,0.1,0.1v0l0.1,0v0l0.1,0v0l0.1,0v0l0.1,0v0l0.1,0v0c0.1,0.1,0.2,0.2,0.3,0.3
		l0.1,0.1c0.8,0,1.6,0.3,2.2,0.9c0.6,0.6,0.9,1.4,0.9,2.2c0.6,0.6,0.9,1.3,0.9,2.2c0,0.9-0.3,1.6-0.9,2.2c0,0.8-0.3,1.6-0.9,2.2
		c-0.6,0.6-1.4,0.9-2.2,0.9l-0.1,0.1c-0.1,0.1-0.2,0.2-0.3,0.3v0l-0.1,0v0l-0.1,0l-0.1,0l-0.1,0v0l-0.1,0v0c0,0-0.1,0-0.1,0.1
		c0,0-0.1,0-0.1,0.1h0l-0.1,0v0l-0.1,0l-0.1,0l-0.1,0l-0.1,0l-0.1,0l-0.1,0l-0.1,0v0l-0.1,0l-0.1,0l-0.1,0l-0.1,0l-0.1,0l-0.1,0v0
		l-0.1,0v0l-0.1,0l-0.1,0v0l-0.1,0v0l-0.1,0l-0.1,0l-0.1,0l-0.1,0l-0.1,0l-0.1,0v0l-0.1,0l-0.1,0l-0.1,0l-0.1,0l-0.1,0l-0.1,0
		l-0.1,0v0l-0.1,0l-0.1,0l-0.1,0l-0.1,0l-0.1,0v0l-0.1,0v0l-0.1,0l-0.1,0l-0.1,0v0l-0.1,0v0l-0.1,0l-0.1,0v0l-0.1,0v0l-0.1,0v0
		l-0.1,0v0l-0.1-0.1l-0.1-0.1c-0.8,0-1.6-0.3-2.2-0.9c-0.6-0.6-0.9-1.4-0.9-2.2c-0.6-0.6-0.9-1.3-0.9-2.2c0-0.9,0.3-1.6,0.9-2.2
		C262.9,548,263.2,547.2,263.8,546.6L263.8,546.6z M268.1,548.4L268.1,548.4c-1.4,0-2.6,1.2-2.6,2.6c0,1.4,1.2,2.6,2.6,2.6
		c1.4,0,2.6-1.2,2.6-2.6C270.7,549.6,269.6,548.4,268.1,548.4z"/>
	
		<path fill-rule="evenodd" clip-rule="evenodd" stroke="#000000" stroke-width="1.1353" stroke-linejoin="round" stroke-miterlimit="22.9256" d="
		M286.2,546.6c0.6-0.6,1.4-0.9,2.2-0.9l0.1-0.1l0.1-0.1v0l0.1,0l0.1,0v0l0.1,0v0l0.1,0l0.1,0v0l0.1,0v0l0.1,0v0l0.1,0v0l0.1,0v0
		l0.1,0v0l0.1,0l0.1,0l0.1,0v0l0.1,0l0.1,0v0l0.1,0v0l0.1,0v0l0.1,0v0l0.1,0v0l0.1,0v0l0.1,0l0.1,0v0l0.1,0v0l0.1,0v0l0.1,0l0.1,0v0
		l0.1,0v0l0.1,0l0.1,0v0l0.1,0l0.1,0v0l0.1,0l0.1,0v0l0.1,0v0l0.1,0l0.1,0v0l0.1,0v0l0.1,0v0l0.1,0l0.1,0v0l0.1,0v0l0.1,0v0l0.1,0v0
		l0.1,0v0l0.1,0v0l0.1,0h0c0,0,0.1,0,0.1,0.1c0,0,0.1,0,0.1,0.1v0l0.1,0v0l0.1,0v0l0.1,0v0l0.1,0v0l0.1,0v0c0.1,0.1,0.2,0.2,0.3,0.3
		l0.1,0.1c0.8,0,1.6,0.3,2.2,0.9c0.6,0.6,0.9,1.4,0.9,2.2c0.6,0.6,0.9,1.3,0.9,2.2c0,0.9-0.3,1.6-0.9,2.2c0,0.8-0.3,1.6-0.9,2.2
		c-0.6,0.6-1.4,0.9-2.2,0.9l-0.1,0.1c-0.1,0.1-0.2,0.2-0.3,0.3v0l-0.1,0v0l-0.1,0l-0.1,0l-0.1,0v0l-0.1,0v0c0,0-0.1,0-0.1,0.1
		c0,0-0.1,0-0.1,0.1h0l-0.1,0v0l-0.1,0l-0.1,0l-0.1,0l-0.1,0l-0.1,0l-0.1,0l-0.1,0v0l-0.1,0l-0.1,0l-0.1,0l-0.1,0l-0.1,0l-0.1,0v0
		l-0.1,0v0l-0.1,0l-0.1,0v0l-0.1,0v0l-0.1,0l-0.1,0l-0.1,0l-0.1,0l-0.1,0l-0.1,0v0l-0.1,0l-0.1,0l-0.1,0l-0.1,0l-0.1,0l-0.1,0
		l-0.1,0v0l-0.1,0l-0.1,0l-0.1,0l-0.1,0l-0.1,0v0l-0.1,0v0l-0.1,0l-0.1,0l-0.1,0v0l-0.1,0v0l-0.1,0l-0.1,0v0l-0.1,0v0l-0.1,0v0
		l-0.1,0v0l-0.1-0.1l-0.1-0.1c-0.8,0-1.6-0.3-2.2-0.9c-0.6-0.6-0.9-1.4-0.9-2.2c-0.6-0.6-0.9-1.3-0.9-2.2c0-0.9,0.3-1.6,0.9-2.2
		C285.3,548,285.6,547.2,286.2,546.6L286.2,546.6z M290.6,548.4L290.6,548.4c-1.4,0-2.6,1.2-2.6,2.6c0,1.4,1.2,2.6,2.6,2.6
		c1.4,0,2.6-1.2,2.6-2.6C293.2,549.6,292,548.4,290.6,548.4z"/>
	
		<path fill-rule="evenodd" clip-rule="evenodd" stroke="#000000" stroke-width="1.1353" stroke-linejoin="round" stroke-miterlimit="22.9256" d="
		M308.7,546.2c0.6-0.6,1.4-0.9,2.2-0.9l0.1-0.1l0.1-0.1v0l0.1,0l0.1,0v0l0.1,0v0l0.1,0l0.1,0v0l0.1,0l0.1,0l0.1,0l0.1,0v0l0.1,0v0
		l0.1,0l0.1,0l0.1,0v0l0.1,0l0.1,0v0l0.1,0v0l0.1,0v0l0.1,0v0l0.1,0v0l0.1,0v0l0.1,0l0.1,0v0l0.1,0l0.1,0v0l0.1,0v0l0.1,0v0l0.1,0v0
		l0.1,0l0.1,0v0l0.1,0l0.1,0v0l0.1,0l0.1,0v0l0.1,0v0l0.1,0v0l0.1,0v0l0.1,0l0.1,0v0l0.1,0l0.1,0v0l0.1,0v0l0.1,0v0l0.1,0v0l0.1,0v0
		l0.1,0v0l0.1,0c0,0,0.1,0,0.1,0.1c0,0,0.1,0,0.1,0.1v0l0.1,0v0l0.1,0l0.1,0l0.1,0l0.1,0v0c0.1,0.1,0.2,0.2,0.3,0.3l0.1,0.1
		c0.8,0,1.6,0.3,2.2,0.9c0.6,0.6,0.9,1.4,0.9,2.2c0.6,0.6,0.9,1.3,0.9,2.2c0,0.9-0.3,1.6-0.9,2.2c0,0.8-0.3,1.6-0.9,2.2
		c-0.6,0.6-1.4,0.9-2.2,0.9l-0.1,0.1c-0.1,0.1-0.2,0.2-0.3,0.3v0l-0.1,0v0l-0.1,0v0l-0.1,0l-0.1,0v0l-0.1,0v0c0,0-0.1,0-0.1,0.1
		c0,0-0.1,0-0.1,0.1l-0.1,0v0l-0.1,0v0l-0.1,0l-0.1,0l-0.1,0v0l-0.1,0l-0.1,0l-0.1,0l-0.1,0l-0.1,0l-0.1,0v0l-0.1,0v0l-0.1,0l-0.1,0
		v0l-0.1,0v0l-0.1,0l-0.1,0v0l-0.1,0v0l-0.1,0l-0.1,0v0l-0.1,0v0l-0.1,0l-0.1,0l-0.1,0l-0.1,0l-0.1,0l-0.1,0v0l-0.1,0l-0.1,0l-0.1,0
		v0l-0.1,0v0l-0.1,0l-0.1,0l-0.1,0l-0.1,0v0l-0.1,0v0l-0.1,0v0l-0.1,0l-0.1,0v0l-0.1,0v0l-0.1,0v0l-0.1,0l-0.1,0v0l-0.1,0v0l-0.1,0
		v0l-0.1,0v0l-0.1-0.1l-0.1-0.1c-0.8,0-1.6-0.3-2.2-0.9c-0.6-0.6-0.9-1.4-0.9-2.2c-0.6-0.6-0.9-1.3-0.9-2.2c0-0.9,0.3-1.6,0.9-2.2
		C307.8,547.5,308.1,546.8,308.7,546.2L308.7,546.2z M313,547.9L313,547.9c-1.4,0-2.6,1.2-2.6,2.6c0,1.4,1.2,2.6,2.6,2.6
		c1.4,0,2.6-1.2,2.6-2.6C315.6,549.1,314.5,547.9,313,547.9z"/>
	
		<path fill-rule="evenodd" clip-rule="evenodd" stroke="#000000" stroke-width="1.1353" stroke-linejoin="round" stroke-miterlimit="22.9256" d="
		M331.1,545.7c0.6-0.6,1.4-0.9,2.2-0.9l0.1-0.1l0.1-0.1v0l0.1,0l0.1,0v0l0.1,0l0.1,0l0.1,0l0.1,0v0l0.1,0v0l0.1,0v0l0.1,0v0l0.1,0v0
		l0.1,0l0.1,0l0.1,0v0l0.1,0l0.1,0v0l0.1,0v0l0.1,0l0.1,0l0.1,0v0l0.1,0v0l0.1,0l0.1,0v0l0.1,0v0l0.1,0v0l0.1,0v0l0.1,0v0l0.1,0v0
		l0.1,0l0.1,0v0l0.1,0l0.1,0v0l0.1,0l0.1,0v0l0.1,0v0l0.1,0v0l0.1,0v0l0.1,0v0l0.1,0v0l0.1,0l0.1,0v0l0.1,0v0l0.1,0l0.1,0l0.1,0v0
		l0.1,0v0l0.1,0h0c0,0,0.1,0,0.1,0.1c0,0,0.1,0,0.1,0.1v0l0.1,0v0l0.1,0v0l0.1,0v0l0.1,0v0l0.1,0c0.1,0.1,0.2,0.2,0.3,0.3l0.1,0.1
		c0.8,0,1.6,0.3,2.2,0.9c0.6,0.6,0.9,1.4,0.9,2.2c0.6,0.6,0.9,1.3,0.9,2.2c0,0.9-0.3,1.6-0.9,2.2c0,0.8-0.3,1.6-0.9,2.2
		c-0.6,0.6-1.4,0.9-2.2,0.9l-0.1,0.1c-0.1,0.1-0.2,0.2-0.3,0.3l-0.1,0v0l-0.1,0v0l-0.1,0l-0.1,0l-0.1,0v0c0,0-0.1,0-0.1,0.1
		c0,0-0.1,0-0.1,0.1h0l-0.1,0v0l-0.1,0v0l-0.1,0l-0.1,0l-0.1,0v0l-0.1,0l-0.1,0l-0.1,0v0l-0.1,0l-0.1,0l-0.1,0v0l-0.1,0v0l-0.1,0
		l-0.1,0v0l-0.1,0v0l-0.1,0l-0.1,0v0l-0.1,0v0l-0.1,0l-0.1,0v0l-0.1,0v0l-0.1,0l-0.1,0l-0.1,0v0l-0.1,0l-0.1,0l-0.1,0v0l-0.1,0
		l-0.1,0l-0.1,0v0l-0.1,0v0l-0.1,0l-0.1,0l-0.1,0l-0.1,0v0l-0.1,0v0l-0.1,0l-0.1,0l-0.1,0v0l-0.1,0v0l-0.1,0l-0.1,0l-0.1,0v0l-0.1,0
		v0l-0.1,0v0l-0.1,0v0l-0.1,0l-0.1-0.1c-0.8,0-1.6-0.3-2.2-0.9c-0.6-0.6-0.9-1.4-0.9-2.2c-0.6-0.6-0.9-1.3-0.9-2.2
		c0-0.9,0.3-1.6,0.9-2.2C330.2,547.1,330.5,546.3,331.1,545.7L331.1,545.7z M335.5,547.5L335.5,547.5c-1.4,0-2.6,1.2-2.6,2.6
		c0,1.4,1.2,2.6,2.6,2.6c1.4,0,2.6-1.2,2.6-2.6C338.1,548.6,336.9,547.5,335.5,547.5z"/>
</g>
</svg>
