<svg xmlns="http://www.w3.org/2000/svg" viewBox="0 0 100 23.3"><g fill="#FFF"><path d="M16.9 1.5C18.8.1 21.3-.4 23.6.2c1.4.3 2.6 1.1 3.7 2.1-4.1.4-8.1 2.2-11.1 5.1-3.4 3.3-5.4 8-5.4 12.8H4.7c-1.5 0-2.9-.7-3.8-1.9-1.4-1.8-1.2-4.7.4-6.2 1.4-1.5 3.8-1.8 5.6-.9-.2-2.2 1.5-4.4 3.7-4.9 1.1-.2 2.1 0 3.1.6.4-2.1 1.5-4.1 3.2-5.4z"/><path d="M25.7 5.1c1.1-.2 2.1-.3 3.2-.3.4.9.6 1.8.6 2.7-2.8-.1-5.7.7-8 2.3-3.4 2.3-5.5 6.4-5.5 10.5h-2.7c0-3.4 1.1-6.7 3.1-9.4 2.3-3 5.7-5.1 9.3-5.8z"/><path d="M21.8 12.7c2.9-2.8 7.5-3.5 11.1-1.9.6 1 .7 2.3.7 3.5-1.6-1.3-3.7-1.9-5.7-1.6-2.2.2-4.3 1.6-5.5 3.5-.8 1.2-1.1 2.6-1.2 4h-2.7c.1-2.8 1.3-5.6 3.3-7.5z"/><path d="M25.8 16.1c1.6-1.2 4-1.3 5.7-.3.5.3 1 .7 1.4 1.2-.5.8-1.1 1.5-1.8 2.1-.3-.4-.6-.8-1.1-1-1-.5-2.4-.3-3.1.7-.3.4-.4 1-.5 1.5h-2.7c0-1.7.8-3.3 2.1-4.2zM44.9 16c.9-.8 1.7-1.7 2.4-2.6.1-.2.4-.5.1-.6-.4-.1-.8-.1-1.2 0-.4.1-.6.4-.8.7-.7.8-1.5 1.5-2.3 2.2.3-1.7.7-3.4 1-5.1 0-.2.1-.5 0-.7-.4-.2-.8-.2-1.2-.1-.3 0-.4.4-.4.7-.6 3-1.1 5.9-1.7 8.9 0 .2-.1.5 0 .8.5.2 1 .1 1.5 0 .2-.8.3-1.7.5-2.5.3-.2.6-.3.8-.5.4 1 .7 2 1.1 2.9.4.3.9.2 1.3.2.2 0 .6-.1.5-.4-.6-1.4-1.1-2.6-1.6-3.9zM37.9 12.6c-.5.1-1 .3-1.5.6-.9.7-1.2 2.1-.6 3 .6.8 1.6.8 2.4 1.2.5.3.3 1.1-.2 1.3-.9.5-1.9.1-2.8-.1-.4.2-.5.8-.5 1.2.2.3.5.3.8.4 1.1.2 2.3.2 3.3-.3 1.1-.6 1.7-2.1 1.1-3.2-.5-.9-1.7-.8-2.5-1.3-.5-.3-.4-1 .1-1.3.6-.3 1.4-.3 2-.1.2 0 .5.2.7-.1.2-.3.4-.8.1-1.1-.6-.3-1.6-.3-2.4-.2zM57.4 14c.7-.1 1.3.2 1.9.2.3-.3.6-1.2 0-1.4-.8-.2-1.6-.3-2.4-.2-.9.1-1.7.6-2.1 1.4-.3.8-.3 1.7.2 2.4.6.7 1.6.6 2.3 1.1.4.3.2 1-.3 1.2-.8.4-1.7.2-2.5-.1-.2-.1-.5 0-.6.3-.1.3-.3.8 0 1 .6.3 1.2.3 1.8.4.9 0 2-.1 2.7-.8.7-.6 1-1.8.7-2.7-.3-.8-1.2-1-1.9-1.2-.4-.1-.9-.3-.9-.8.1-.4.7-.8 1.1-.8zM64.9 18.6c-.8.1-1.7.4-2.4 0s-.8-1.3-.7-2c.1-1.1.8-2.3 1.9-2.6.7-.2 1.4.1 2.1.2.3-.3.3-.7.5-1.1-.2-.5-.8-.6-1.3-.7-1.3-.2-2.6.2-3.6 1-1.1 1.1-1.5 2.7-1.4 4.1 0 .8.4 1.7 1.1 2.1.9.6 2.1.5 3.1.3.3-.1.7-.3.8-.6 0 0 .2-.5-.1-.7zM71.5 12.8c-1.1-.5-2.3-.3-3.5 0-.3.1-.8.2-.9.6 0 .3-.1.9.3.8.9-.2 1.9-.5 2.8-.2.5.2.4.9.3 1.3-1.5 0-3.3.1-4.3 1.3-.8.9-.9 2.7.3 3.4 1.1.5 2.5.3 3.4-.5.1.9 1.5 1.1 2 .4.3-.5-.4-.9-.3-1.4.2-1.3.5-2.6.7-3.9.2-.7-.1-1.5-.8-1.8zm-1.6 5.5c-.5.4-1.1.7-1.7.7-.3 0-.6-.1-.7-.4-.2-.5.1-1.2.6-1.5.7-.4 1.5-.4 2.2-.4-.1.4-.1 1-.4 1.6zM78.6 12.6c-1.1-.3-2.3.2-3.2.9-.1-.2 0-.5-.2-.7-.4-.1-.9-.2-1.2 0-.2.3-.2.6-.3.9-.4 2-.8 4-1.1 6 .3.4.8.2 1.2.2.3 0 .5-.3.5-.6.3-1.5.6-2.9.8-4.4.7-.6 1.6-1.1 2.4-.8.5.1.5.7.5 1.1-.2 1.5-.6 2.9-.8 4.3-.1.4.4.4.7.4.3 0 .8 0 .9-.3.2-1 .4-2 .6-2.9.2-.9.4-1.9.4-2.8 0-.6-.6-1.1-1.2-1.3zM86 12.6c-1.1-.2-2.3.2-3.1.9V13c-.2-.4-.7-.2-1.1-.2-.3 0-.4.3-.5.6-.4 2-.8 4-1.1 5.9 0 .2-.1.4 0 .6.4.2.8.2 1.2.1.4-.1.4-.5.5-.8.3-1.4.5-2.8.8-4.2.6-.5 1.5-1 2.4-.8.4.1.6.6.6 1-.2 1.6-.6 3.1-.8 4.7.2.3.6.3.9.3.3 0 .5-.1.8-.3.2-1.2.5-2.4.7-3.5.1-.8.3-1.5.3-2.3-.4-.8-1-1.4-1.6-1.5zM92.8 12.6c-1.1-.2-2.2 0-3.1.6-1.1.7-1.6 2-1.8 3.2-.1 1-.1 2 .4 2.9.6.9 1.8 1 2.8 1 .7 0 1.5-.1 2.1-.4.3-.3.4-1 .1-1.3-1 .1-2.2.5-3.1 0-.5-.3-.6-.9-.6-1.5h4.2c.3 0 .6-.1.6-.4.2-.9.3-1.8 0-2.6-.2-.8-.8-1.3-1.6-1.5zm0 3.3h-3c.2-.7.5-1.5 1.3-1.8.5-.2 1.2-.3 1.6.2.3.5.1 1.1.1 1.6zM99.9 12.7c-.9-.2-1.8.3-2.4.9 0-.2.1-.6-.3-.7-.4-.1-1.2-.1-1.3.5l-1.2 6.3c-.1.3 0 .6.3.5.4 0 1.2.2 1.3-.4.3-1.6.6-3.3 1-4.9.5-.3 1-.4 1.5-.5.3-.1.7 0 .9-.4.2-.5.4-.9.2-1.3zM54.1 13c-.3-.3-.7-.2-1.1-.2-.3 0-.5.2-.6.5-.3 1.5-.6 3.1-.9 4.6-.6.5-1.4.9-2.2.7-.5-.1-.4-.7-.4-1.1.2-1.5.6-2.9.8-4.4 0-.4-.5-.3-.8-.3-.3 0-.8 0-.9.4l-.6 3c-.2 1-.5 2-.3 3 .2.8 1 1.2 1.8 1.1.8.1 1.6-.3 2.3-.7-.2.8-.3 1.6-1 2.1s-1.7.3-2.5.3c-.4.3-.6 1.3.1 1.4 1.1.2 2.3.2 3.3-.4 1-.6 1.4-1.8 1.7-2.9.5-2 .8-4 1.2-6.1 0-.4.1-.7.1-1z"/></g></svg>