<svg xmlns="http://www.w3.org/2000/svg" height="116.97mm" width="101.81mm" viewBox="0 0 101.81167 116.97228"><g transform="translate(-5.226 -113.69)"><path fill="#fcdd09" d="M105.182 143.608v56.7l-49.08 28.336-49.106-28.337v-56.7l49.106-28.362"/><circle r=".132" cy="172.4" cx="56.529" fill="none"/><g stroke-width=".265" fill="#da121a"><path d="M76.32 209.12c-.132-.238-.45-.318-.66-.185L58.116 219.07l7.46-9.526c.16-.212.133-.53-.08-.688-.21-.16-.528-.132-.687.08l-8.15 10.397v-10.16c0-.264-.21-.502-.5-.502s-.504.212-.504.503v10.16l-8.15-10.398c-.158-.21-.476-.238-.687-.08-.213.16-.24.477-.08.69l7.46 9.524-17.885-10.32c-.24-.132-.53-.053-.662.185s-.053.53.185.66l20.082 11.59h.027c.026 0 .026.027.053.027h.079c.026 0 .078.026.105.026.053 0 .08 0 .106-.026h.054c.026 0 .026-.027.053-.027h.026l19.762-11.41c.185-.105.265-.423.132-.66z"/><circle r=".609" cy="208.2" cx="77.643"/><circle r=".609" cy="208.2" cx="34.383"/><path d="M106.14 142.26l-49.108-28.34c-.556-.318-1.243-.318-1.8 0L6.127 142.26c-.556.318-.9.926-.9 1.56v56.7c0 .636.344 1.245.9 1.562l49.106 28.34c.29.16.582.238.9.238s.634-.08.9-.238l49.106-28.337c.556-.317.9-.926.9-1.56v-56.7c0-.636-.344-1.244-.9-1.562zm-2.672 57.23l-47.334 27.304-47.28-27.305-.08-54.637 47.36-27.305 47.306 27.305"/><path d="M38.43 199.17c.213 0 .37-.16.37-.37v-1.88l1.536 2.012c.106.132.212.238.397.238h.026c.21 0 .396-.16.396-.397v-2.778c0-.212-.16-.37-.37-.37s-.37.158-.37.37v1.8l-1.482-1.96c-.106-.13-.212-.237-.397-.237h-.08c-.21 0-.396.16-.396.397v2.778c0 .238.16.397.37.397zM43.697 199.2c1.085 0 1.88-.82 1.88-1.8 0-1.005-.77-1.798-1.854-1.798s-1.878.82-1.878 1.8c0 1.004.767 1.798 1.852 1.798zm-1.032-1.8c0-.608.423-1.084 1.058-1.084.61 0 1.06.503 1.06 1.11 0 .61-.425 1.086-1.06 1.086-.635-.027-1.058-.503-1.058-1.11zM46.633 199.15h.98c1.11 0 1.85-.767 1.85-1.746 0-.98-.766-1.746-1.85-1.746h-.98c-.212 0-.397.158-.397.396v2.7c.027.237.185.396.397.396zm.397-2.805h.582c.635 0 1.058.424 1.058 1.06 0 .607-.423 1.057-1.058 1.057h-.582v-2.117zM50.55 199.15h1.957c.185 0 .344-.16.344-.344s-.158-.344-.343-.344H50.92v-.74h1.322c.186 0 .344-.16.344-.345s-.158-.344-.344-.344H50.92v-.714h1.56c.186 0 .344-.16.344-.345s-.158-.344-.344-.344h-1.93c-.213 0-.398.16-.398.398v2.725c.026.238.185.397.397.397zM53.46 198.78c.397.29.847.423 1.323.423.767 0 1.296-.397 1.296-1.084 0-.61-.397-.875-1.112-1.06-.608-.16-.767-.238-.767-.45 0-.158.16-.317.45-.317.24 0 .477.08.742.238.052.028.132.054.185.054.21 0 .37-.16.37-.344 0-.16-.08-.265-.16-.318-.316-.21-.687-.317-1.11-.317-.714 0-1.217.423-1.217 1.058 0 .688.45.9 1.164 1.06.582.157.715.237.715.448s-.187.32-.504.32c-.344 0-.635-.133-.9-.32-.053-.025-.132-.078-.21-.078-.213 0-.372.16-.372.344-.053.185.027.29.106.344zM58.355 199.2c.556 0 .926-.16 1.244-.45.078-.053.13-.16.13-.264 0-.186-.158-.344-.37-.344-.08 0-.158.026-.238.08-.21.184-.423.264-.767.264-.61 0-1.005-.503-1.005-1.112 0-.608.423-1.084 1.005-1.084.265 0 .503.08.714.238.052.026.132.08.237.08.212 0 .37-.16.37-.37 0-.134-.078-.24-.158-.32-.292-.21-.636-.343-1.165-.343-1.085 0-1.826.82-1.826 1.8.052 1.03.82 1.825 1.825 1.825zM60.815 199.17c.212 0 .397-.16.397-.397v-1.058h1.43v1.058c0 .212.157.397.396.397.21 0 .396-.16.396-.397v-2.778c0-.212-.158-.397-.396-.397-.212 0-.397.16-.397.397v1.032h-1.428v-1.032c0-.212-.16-.397-.397-.397-.212 0-.397.16-.397.397v2.778c0 .238.16.397.397.397zM65.922 199.2c1.085 0 1.852-.82 1.852-1.8 0-1.005-.767-1.798-1.852-1.798s-1.88.82-1.88 1.8c.028 1.004.795 1.798 1.88 1.798zm-1.058-1.8c0-.608.423-1.084 1.058-1.084.61 0 1.058.503 1.058 1.11 0 .61-.423 1.086-1.058 1.086-.61-.027-1.058-.503-1.058-1.11zM70.18 199.2c1.086 0 1.88-.82 1.88-1.8 0-1.005-.768-1.798-1.853-1.798s-1.878.82-1.878 1.8c0 1.004.766 1.798 1.85 1.798zm-1.057-1.8c0-.608.423-1.084 1.058-1.084.61 0 1.06.503 1.06 1.11 0 .61-.424 1.086-1.06 1.086-.608-.027-1.057-.503-1.057-1.11zM73.118 199.15h1.8c.184 0 .343-.16.343-.344s-.158-.344-.343-.344h-1.43v-2.434c0-.212-.157-.397-.395-.397-.212 0-.397.16-.397.398v2.725c.026.238.21.397.423.397zM66.662 204.81c.08-.16.29-.212.45-.132l.053.026c.132.08.185.185.185.344l.265 2.064.767-1.323c.08-.16.29-.213.45-.107.158.08.21.29.105.45l-1.19 2.037c-.08.16-.29.212-.45.133h-.026c-.132-.08-.185-.186-.185-.344l-.264-2.144-.793 1.375c-.08.16-.29.213-.45.107-.16-.08-.21-.29-.106-.45l1.192-2.037zM43.432 206.2c-.08-.16-.026-.344.132-.45l.9-.53c.29-.158.582-.21.794-.158.185.053.317.16.423.344.16.29.107.53-.026.74.37-.052.635 0 .847.345.266.477.028.927-.554 1.27l-.926.53c-.16.08-.344.027-.45-.132l-1.138-1.958zm1.508.132c.238-.132.37-.317.238-.502-.106-.16-.29-.186-.53-.053l-.555.317.318.556.53-.318zm.767.953c.24-.133.344-.318.24-.503-.107-.185-.293-.212-.584-.026l-.66.37.316.556.687-.397zM56.23 203.26c-.9 0-1.534.688-1.534 1.534 0 .847.662 1.51 1.51 1.51.475 0 .792-.134 1.057-.372.053-.053.106-.132.106-.238 0-.16-.16-.29-.32-.29-.078 0-.13.026-.184.08-.185.157-.37.236-.635.236-.502 0-.846-.423-.846-.926 0-.502.344-.926.847-.926.24 0 .424.08.61.212.026.027.105.053.185.053.185 0 .317-.132.317-.317 0-.133-.053-.212-.132-.265-.238-.184-.53-.29-.98-.29z"/></g><path stroke-linejoin="round" d="M33.855 192.01v-16.878l4.016-36.338-1.675-1.992 1.676-1.707 1.613 1.707-1.612 1.992 4.063 28.11 1.6-.505 3.934-36.27-1.786-1.833 1.787-1.74 1.755 1.74-1.755 1.834L51.5 166.4v17.39l3.793-1.456 1.06-3.984-1.186-.814 1.186-1.083 1.09 1.083-1.09.814.964 3.984 3.415 1.455V166.4l4.506-36.27-1.597-1.833 1.598-1.74 1.69 1.74-1.69 1.834 3.5 36.27 1.606.504 4.46-28.11L73 136.802l1.803-1.708 1.74 1.708-1.74 1.992 3.607 36.338v16.878h-8.066v-12.52l-1.606-.127v12.648h-8.006v-4.426l-3.29-1.518v2.72l1.266 3.225h-4.553l1.012-3.225v-2.72l-3.668 1.52v4.426h-7.967v-12.647l-1.6.126v12.52z" stroke="#da121a" stroke-width=".966" fill="none"/></g></svg>